# xmcd
#
# Track frame offsets:
#	150
#	17303
#	44163
#	60849
#	85240
#	106260
#	132098
#	163338
#	194393
#	220329
#	245528
#	270317
#
# Disc length: 3932 seconds
#
# Revision: 1
# Processed by: cddbd v1.5.2PL0 Copyright (c) Steve Scherf et al.
# Submitted via: audiograbber 1.83.01
#
DISCID=9f0f5a0c
DTITLE=Jeff Daniels - Grandfather's Hat
DYEAR=2006
DGENRE=Folk
TTITLE0=Orville Wright
TTITLE1=Are You As Excited
TTITLE2=Tomato Puddin'
TTITLE3=Grandfather's Hat
TTITLE4=Have a Good Life
TTITLE5=Middle Of The Night
TTITLE6=Detroit Train
TTITLE7=Across The Way
TTITLE8=Forgive Me, Robert Johnson
TTITLE9=The Ballad of the Buckless Yooper
TTITLE10=Mile 416
TTITLE11=The Lifelong Tiger Fan Blues Revisited
EXTD=
EXTT0=
EXTT1=
EXTT2=
EXTT3=
EXTT4=
EXTT5=
EXTT6=
EXTT7=
EXTT8=
EXTT9=
EXTT10=
EXTT11=
PLAYORDER=
